<?xml version="1.0"?>
<svg xmlns="http://www.w3.org/2000/svg" height="512px" viewBox="0 0 512.00033 512" width="512px" class=""><g><path d="m280.285156 390.976562h-54.28125c-57.890625 0-104.996094-47.109374-104.996094-105h29.996094c0 41.351563 33.648438 75 75 75h22.457032c-14.117188-17.347656-24.960938-37.609374-31.246094-60h66.8125l-15.542969-23.320312c-21.34375-32.019531-26.277344-72.875-13.183594-109.289062 24.242188-67.375 96.355469-88.921876 161.804688-71.96875l57.207031 14.488281-43.144531-39.902344c-50.023438-47.386719-115.851563-73.128906-183.996094-70.84375-133.507813 4.527344-248.152344 117.246094-247.1640625 257.90625.9648435 137.582031 113.2656255 253.925781 255.9960935 253.925781 65.300782 0 127.511719-25.855468 175.164063-71.003906l43.128906-39.902344-57.191406 14.488282c-50.980469 13.164062-99.585938 2.023437-136.820313-24.578126zm-189.28125-210h60v30h-60zm0 0" data-original="#000000" class="active-path" data-old_color="#ffffff" fill="#ffffff"/><path d="m444.074219 211.519531c-10.441407-18.515625-31.21875-30.542969-53.074219-30.542969-33.089844 0-59.996094 26.910157-59.996094 60 0 .851563.011719 1.699219.058594 2.550782-17.492188 6.179687-30.058594 22.878906-30.058594 42.449218 0 24.8125 20.183594 45 45 45h105.996094c33.089844 0 60-26.910156 60-60-.015625-35.742187-32.710938-64.367187-67.925781-59.457031zm0 0" data-original="#000000" class="active-path" data-old_color="#ffffff" fill="#ffffff"/></g> </svg>
