<svg height="512pt" viewBox="0 0 512 512" width="512pt" xmlns="http://www.w3.org/2000/svg"><path d="m367.5 316.832031h-82.5c-8.402344 0-15-6.601562-15-15 0-8.402343 6.597656-15 15-15h82.5c12.300781 0 22.5-10.203125 22.5-22.5 0-12.300781-10.199219-22.5-22.5-22.5h-112.5c-8.402344 0-15-6.601562-15-15v-90c0-30.601562-14.398438-36.300781-29.097656-39-4.203125-.902343-8.703125 0-12.003906 2.699219-3.597657 2.398438-5.699219 6.300781-6.300782 10.5-5.398437 49.796875-18.898437 95.398438-58.199218 128.398438l-22.199219 18.898437c-10.199219 8.703125-23.101563 13.5-36.597657 13.5h-60.601562c-8.402344 0-15 6.601563-15 15v180c0 8.402344 6.597656 15 15 15h30.902344c30.296875 0 60 5.402344 88.496094 16.199219 23.703124 8.703125 48.300781 13.800781 73.5 13.800781h99.601562c12.300781 0 22.5-10.199219 22.5-22.5 0-12.296875-10.199219-22.5-22.5-22.5h-22.5c-8.402344 0-15-6.597656-15-15 0-8.398437 6.597656-15 15-15h52.5c12.300781 0 22.5-10.199219 22.5-22.5 0-12.296875-10.199219-22.5-22.5-22.5h-52.5c-8.402344 0-15-6.597656-15-15 0-8.398437 6.597656-15 15-15h82.5c12.300781 0 22.5-10.199219 22.5-22.5 0-12.296875-10.199219-22.496094-22.5-22.496094zm0 0" fill="#fed2a4"/><path d="m332.011719 153.648438c-13.859375 0-25.988281-4.511719-34.644531-13.183594-12.203126-12.191406-16.171876-31.230469-10.914063-52.269532 4.644531-18.632812 16.054687-37.730468 32.125-53.789062 16.054687-16.066406 35.15625-27.476562 53.789063-32.121094 21.035156-5.289062 40.0625-1.289062 52.265624 10.910156 12.203126 12.191407 16.171876 31.246094 10.914063 52.269532-4.644531 18.632812-16.054687 37.730468-32.125 53.785156-16.054687 16.070312-35.15625 27.480469-53.789063 32.125-6.078124 1.523438-11.996093 2.273438-17.621093 2.273438zm0 0" fill="#fdbf00"/><path d="m422 240.832031c-8.289062 0-15-6.710937-15-15 0-8.292969 6.710938-15 15-15 16.023438 0 31.097656-6.242187 42.421875-17.578125 11.339844-11.324218 17.578125-26.398437 17.578125-42.421875 0-16.027343-6.238281-31.101562-17.578125-42.421875-5.859375-5.847656-5.859375-15.351562 0-21.210937 5.832031-5.859375 15.351563-5.859375 21.210937 0 17.007813 16.976562 26.367188 39.578125 26.367188 63.632812 0 24.050781-9.359375 46.652344-26.367188 63.632813-16.976562 17.007812-39.578124 26.367187-63.632812 26.367187zm0 0" fill="#e0eaf0"/><path d="m338.925781 210.832031h-22.925781c-8.289062 0-15-6.710937-15-15 0-8.292969 6.710938-15 15-15h22.925781c35.652344 0 67.703125-19.820312 83.65625-51.710937 3.722657-7.425782 12.714844-10.398438 20.128907-6.707032 7.410156 3.703126 10.414062 12.714844 6.707031 20.125-21.0625 42.128907-63.398438 68.292969-110.492188 68.292969zm0 0" fill="#e0eaf0"/><path d="m360 414.332031c0 12.296875-10.199219 22.5-22.5 22.5h-52.5c-8.402344 0-15 6.597657-15 15 0 8.398438 6.597656 15 15 15h22.5c12.300781 0 22.5 10.199219 22.5 22.5 0 12.296875-10.199219 22.5-22.5 22.5h-99.601562c-25.199219 0-49.796876-5.101562-73.5-13.800781-28.496094-10.800781-58.199219-16.199219-88.496094-16.199219h-30.902344c-8.402344 0-15-6.601562-15-15v-90h270c0 8.398438 6.597656 15 15 15h52.5c12.300781 0 22.5 10.199219 22.5 22.5zm0 0" fill="#ffbd86"/></svg>