<?xml version="1.0" encoding="iso-8859-1"?>
<!-- Generator: Adobe Illustrator 19.0.0, SVG Export Plug-In . SVG Version: 6.00 Build 0)  -->
<svg version="1.1" id="Layer_1" xmlns="http://www.w3.org/2000/svg" xmlns:xlink="http://www.w3.org/1999/xlink" x="0px" y="0px"
	 viewBox="0 0 508 508" style="enable-background:new 0 0 508 508;" xml:space="preserve">
<circle style="fill:#324A5E;" cx="254" cy="254" r="254"/>
<path style="fill:#FFFFFF;" d="M390.6,202c-0.7,0-1.4,0.1-2.2,0.1c1.4-6.1,2.2-12.4,2.2-18.9c0-46.9-38-85-85-85
	c-24.2,0-46,10.2-61.5,26.5c-15.5-16.3-37.3-26.5-61.5-26.5c-46.9,0-85,38-85,85c0,7.4,1,14.5,2.8,21.4
	c-22.5,7.1-38.8,28.2-38.8,53.1c0,30.8,24.9,55.7,55.7,55.7h273.3c30.8,0,55.7-24.9,55.7-55.7S421.4,202,390.6,202z"/>
<polygon style="fill:#84DBFF;" points="192,217.1 141.8,277.2 161.8,277.2 171,371.5 213.1,371.5 222.3,277.2 242.3,277.2 "/>
<polygon style="fill:#FF7058;" points="316,409.7 366.2,349.6 346.2,349.6 337,255.3 294.9,255.3 285.7,349.6 265.7,349.6 "/>
<g>
</g>
<g>
</g>
<g>
</g>
<g>
</g>
<g>
</g>
<g>
</g>
<g>
</g>
<g>
</g>
<g>
</g>
<g>
</g>
<g>
</g>
<g>
</g>
<g>
</g>
<g>
</g>
<g>
</g>
</svg>
