<?xml version="1.0" encoding="iso-8859-1"?>
<!-- Generator: Adobe Illustrator 19.0.0, SVG Export Plug-In . SVG Version: 6.00 Build 0)  -->
<svg version="1.1" id="Layer_1" xmlns="http://www.w3.org/2000/svg" xmlns:xlink="http://www.w3.org/1999/xlink" x="0px" y="0px"
	 viewBox="0 0 482.2 482.2" style="enable-background:new 0 0 482.2 482.2;" xml:space="preserve">
<circle style="fill:#324A5E;" cx="241.1" cy="241.1" r="241.1"/>
<path style="fill:#F9B54C;" d="M330.2,122.9L330.2,122.9c0-6.4-5.2-11.5-11.5-11.5h-56.6c-4.2,0-8.1,2.3-10.1,6l-6.2,11.2
	c-2,3.7-5.9,6-10.1,6H100c-6.4,0-11.5,5.2-11.5,11.5v213.2c0,6.4,5.2,11.5,11.5,11.5h271.3c6.4,0,11.5-5.2,11.5-11.5V146
	c0-6.4-5.2-11.5-11.5-11.5h-29.6C335.4,134.5,330.2,129.3,330.2,122.9z"/>
<rect x="106.1" y="166.7" style="fill:#E6E9EE;" width="262.4" height="125.3"/>
<rect x="106.1" y="183.6" style="fill:#FFFFFF;" width="262.4" height="108.4"/>
<path style="fill:#FFD05B;" d="M241,201.8l-29.1,45.3c-2.4,3.8-6.1,6-10.1,6H79.3c-7.3,0-11.9,7.2-10.3,15.9l17.1,89.4
	c1.3,6.9,7.5,12.4,13.9,12.4h271.3c6.4,0,12.6-5.5,13.9-12.4l27.9-145.3c1.9-9.9-2.9-18-10.7-18H252
	C247.7,195.1,243.7,197.5,241,201.8z"/>
<g>
</g>
<g>
</g>
<g>
</g>
<g>
</g>
<g>
</g>
<g>
</g>
<g>
</g>
<g>
</g>
<g>
</g>
<g>
</g>
<g>
</g>
<g>
</g>
<g>
</g>
<g>
</g>
<g>
</g>
</svg>
